<svg width="36" height="20" viewBox="0 0 36 20" fill="none" xmlns="http://www.w3.org/2000/svg">
<path d="M9.21748 6.02671L6.23197 0.900008C6.06495 0.61385 6.16586 0.248396 6.45119 0.0794599C6.73652 -0.0860289 7.10883 0.0105062 7.27585 0.296664L10.2996 5.48887C12.6066 4.44422 15.2059 3.86157 18 3.86157C20.7941 3.86157 23.3934 4.44422 25.7004 5.48887L28.7276 0.300111C28.8946 0.0139539 29.2635 -0.0860289 29.5558 0.0829075C29.8446 0.248396 29.9455 0.61385 29.775 0.903456L26.7895 6.03016C31.9358 8.79175 35.4224 13.9564 36 20.0002H0C0.577614 13.9529 4.06418 8.7883 9.21748 6.02671ZM26.2641 14.9941C27.0992 14.9941 27.7742 14.3218 27.7742 13.4978C27.7742 12.6738 27.0957 12.0015 26.2641 12.0015C25.4324 12.0015 24.7539 12.6738 24.7539 13.4978C24.7504 14.3218 25.429 14.9941 26.2641 14.9941ZM9.73942 14.9941C10.5745 14.9941 11.2496 14.3218 11.2496 13.4978C11.2496 12.6738 10.571 12.0015 9.73942 12.0015C8.90779 12.0015 8.22927 12.6738 8.22927 13.4978C8.22579 14.3218 8.90431 14.9941 9.73942 14.9941Z" fill="white"/>
</svg>
