<svg width="18" height="14" viewBox="0 0 18 14" fill="none" xmlns="http://www.w3.org/2000/svg">
<path d="M17.1274 6.50214L14.4112 4.35145V1.44402C14.4112 1.26203 14.2625 1.11326 14.0805 1.11326H12.909C12.727 1.11326 12.5782 1.26203 12.5782 1.44402V2.90069L9.13957 0.178578C8.83853 -0.0595262 8.41384 -0.0595262 8.11294 0.178578L0.125087 6.50223C-0.0177725 6.61538 -0.0415821 6.82432 0.0708243 6.96737L0.686747 7.74536C0.79989 7.88822 1.00883 7.91203 1.15188 7.79963L8.62611 1.88139L16.1008 7.79868C16.2437 7.91183 16.4528 7.88728 16.5659 7.74442L17.1819 6.96642C17.2948 6.82356 17.2703 6.61444 17.1274 6.50203L17.1274 6.50214Z" fill="#444444"/>
<path d="M2.84241 7.30417V13.6694C2.84241 13.8514 2.99117 14.0002 3.17317 14.0002H6.79437V8.38717H10.4606V14.0002H14.0818C14.2638 14.0002 14.4126 13.8514 14.4126 13.6694L14.4124 7.30417L8.62646 2.72504L2.84241 7.30417Z" fill="#444444"/>
</svg>
