<svg width="22" height="28" viewBox="0 0 22 28" fill="none" xmlns="http://www.w3.org/2000/svg">
<g clip-path="url(#clip0_2138_13)">
<path d="M0 13.8881C0.136415 13.2849 0.248027 12.6693 0.421646 12.0785C1.26494 9.23675 3.646 7.27798 6.3991 7.11008C7.2982 7.05412 8.14149 7.27176 8.96618 7.59511C9.07779 7.63864 9.1956 7.67595 9.30101 7.73191C10.5039 8.37862 11.6759 8.33509 12.9098 7.74435C14.77 6.84891 16.6922 6.74942 18.6206 7.57646C19.6747 8.03039 20.5304 8.72685 21.1753 9.68447C16.9589 12.4827 17.5231 18.3653 21.9938 20.4049C21.4357 21.5117 20.9521 22.6559 20.3134 23.7068C19.7492 24.6271 19.0733 25.4977 18.3478 26.2999C17.2255 27.5311 15.8303 27.7612 14.2864 27.158C13.6291 26.903 12.9718 26.6232 12.2897 26.474C11.2294 26.2501 10.2125 26.4864 9.208 26.8906C8.57554 27.1455 7.91206 27.3632 7.24239 27.4751C6.30609 27.6306 5.5186 27.1953 4.86133 26.5672C3.37937 25.1557 2.28185 23.4643 1.45096 21.605C0.762683 20.0691 0.291432 18.4648 0.0930101 16.7858C0.0806088 16.6863 0.0372041 16.593 0.00620068 16.4935C0.00620068 15.6292 0.00620068 14.7648 0.00620068 13.9005L0 13.8881Z" fill="black"/>
<path d="M16.3574 0.499993C16.407 2.41524 15.7807 4.0631 14.3732 5.36895C13.4245 6.25195 12.3083 6.78051 10.9318 6.71833C10.7954 5.79179 10.9938 4.9461 11.3534 4.1315C12.1719 2.29709 13.5733 1.14048 15.5017 0.611923C15.6133 0.580831 15.7249 0.537303 15.8365 0.493774C16.0101 0.493774 16.1838 0.493774 16.3512 0.493774L16.3574 0.499993Z" fill="black"/>
</g>
<defs>
<clipPath id="clip0_2138_13">
<rect width="22" height="27" fill="white" transform="translate(0 0.5)"/>
</clipPath>
</defs>
</svg>
