<svg width="114" height="46" viewBox="0 0 114 46" fill="none" xmlns="http://www.w3.org/2000/svg">
<path d="M91.4025 10.2468C91.669 9.97995 91.9355 9.60637 92.2552 9.44626C92.575 9.28616 92.9481 9.23279 93.2679 9.12605C93.2679 9.12605 93.3745 9.23279 93.4278 9.28616C94.3338 10.7805 94.92 12.4349 95.1332 14.1961C95.5063 17.3448 94.8667 20.2267 93.108 22.8418C90.9761 25.9372 88.0449 27.7517 84.3141 28.1787C77.8653 28.9792 72.0028 24.7097 70.6704 18.3055C69.2847 11.4743 73.7616 4.80319 80.6367 3.57571C83.7279 3.04203 86.6592 3.57571 89.324 5.17677C89.5371 5.28351 89.5371 5.39025 89.5371 5.60372C89.4838 6.40425 88.9509 6.8312 88.4179 7.31152C85.8064 5.71046 82.9817 5.23014 80.0505 6.08404C77.6522 6.77783 75.7868 8.16542 74.4011 10.2468C71.6297 14.4629 72.3759 20.0666 76.1066 23.4289C79.784 26.7377 85.3801 26.8978 89.2707 23.7491C93.2146 20.5469 94.2272 14.7831 91.3492 10.3002L91.4025 10.2468Z" fill="#11B04B"/>
<path d="M86.9789 8.75245C86.4993 9.23277 86.0729 9.65972 85.6465 10.0867C85.3801 10.4069 85.1669 10.4602 84.7938 10.3001C81.3296 9.12603 77.7054 11.3675 77.2258 14.9966C76.7994 18.092 78.9845 21.0272 82.0224 21.4542C85.2202 21.9345 88.1514 19.7998 88.6311 16.7044C88.791 15.6904 88.6844 14.6764 88.3113 13.6624C88.258 13.5023 88.258 13.3955 88.4179 13.2354C88.9509 12.7017 89.4305 12.168 89.9635 11.6877C91.5624 14.1961 91.669 18.6256 88.5778 21.6677C85.4866 24.6029 80.5834 24.6563 77.4923 21.7744C74.2945 18.8391 73.9747 13.9292 76.6395 10.6204C79.4642 7.15139 84.101 6.88455 87.0855 8.69908L86.9789 8.75245Z" fill="#11B04B"/>
<path d="M93.5343 2.08135V5.12337H96.6255C96.6255 5.12337 96.5189 5.28347 96.4123 5.33684C95.6129 6.19074 94.7601 6.99127 93.9074 7.84517C93.8008 7.9519 93.6942 8.00527 93.5876 8.05864C93.3744 8.11201 93.1613 8.21875 92.8948 8.21875C92.2552 8.27212 91.7756 8.6457 91.3492 9.07265C89.4838 10.9939 87.6185 12.8618 85.6998 14.7297C85.5932 14.8365 85.5399 14.9966 85.5932 15.1567C85.9663 16.7044 84.9537 18.3054 83.4081 18.6256C81.8625 18.9458 80.3169 17.9318 79.9972 16.3842C79.6774 14.7297 80.69 13.2354 82.3422 12.9686C82.7153 12.9152 83.1416 12.9686 83.568 12.9686C83.7279 12.9686 83.8345 12.9686 83.9411 12.8618C85.9663 10.7804 88.0449 8.75243 90.1234 6.67106C90.23 6.56432 90.3366 6.40421 90.3366 6.29748C90.4432 5.2301 90.9761 4.3762 91.7756 3.68241C92.3618 3.14873 92.8948 2.56167 93.481 2.02798C93.481 2.02798 93.481 2.02798 93.5343 2.02798V2.08135Z" fill="#EF373E"/>
<path d="M23.6101 1.86789V23.0552C23.6101 23.3221 23.3969 23.5356 23.1304 23.5356H18.6536C18.3871 23.5356 18.1739 23.3221 18.1739 23.0552V13.3422L14.3366 23.1086C14.3366 23.1086 13.9635 23.5356 13.7503 23.5356H9.80645C9.80645 23.5356 9.32679 23.3755 9.2202 23.1086L5.38289 13.3422V23.0552C5.38289 23.3221 5.16971 23.5356 4.90323 23.5356H0.479663C0.213184 23.5356 0 23.3221 0 23.0552V1.86789C0 1.60105 0.213184 1.38757 0.479663 1.38757H5.43618C5.43618 1.38757 5.91585 1.49431 6.02244 1.70779L11.8317 17.2914L17.5877 1.70779C17.5877 1.70779 17.9074 1.38757 18.1739 1.38757H23.1304C23.3969 1.38757 23.6101 1.60105 23.6101 1.86789Z" fill="#11B04B"/>
<path d="M26.5947 2.77517C26.5947 1.28085 27.8205 0 29.3661 0C30.9116 0 32.1374 1.22748 32.1374 2.77517C32.1374 4.32286 30.9116 5.55034 29.3661 5.55034C27.8205 5.55034 26.5947 4.32286 26.5947 2.77517ZM27.1809 8.05867H31.4446C31.7111 8.05867 31.9243 8.27214 31.9243 8.53899V23.1086C31.9243 23.3755 31.7111 23.5889 31.4446 23.5889H27.1809C26.9144 23.5889 26.7013 23.3755 26.7013 23.1086V8.53899C26.7013 8.27214 26.9144 8.05867 27.1809 8.05867Z" fill="#11B04B"/>
<path d="M46.4208 18.9459C46.4208 22.2014 43.1165 23.9625 40.1852 23.9625C37.5204 23.9625 35.3353 22.6817 34.216 21.3475C34.0029 21.134 34.1094 20.8671 34.216 20.707L35.7616 18.4656C35.7616 18.4656 36.188 18.2521 36.5078 18.4656C38.0533 19.3728 39.2259 19.6397 40.0253 19.6397C40.505 19.6397 41.411 19.6397 41.411 18.8925C41.411 17.1313 34.5358 17.9319 34.5358 12.7017C34.5358 9.44625 37.3072 7.68509 40.0786 7.68509C42.317 7.68509 44.3423 8.48562 45.6214 10.0333C45.8346 10.2468 45.728 10.5136 45.6214 10.6737L44.0225 12.8085C44.0225 12.8085 43.5961 12.9152 43.3296 12.8085C42.1038 12.1681 41.5176 11.8478 40.6648 11.8478C39.7588 11.8478 39.5456 12.3815 39.5456 12.6484C39.5456 14.623 46.4741 13.1821 46.4741 18.9992L46.4208 18.9459Z" fill="#11B04B"/>
<path d="M60.2244 18.9459C60.2244 22.2014 56.92 23.9625 53.9888 23.9625C51.324 23.9625 49.1388 22.6817 48.0196 21.3475C47.8064 21.134 47.913 20.8671 48.0196 20.707L49.5652 18.4656C49.5652 18.4656 49.9916 18.2521 50.3113 18.4656C51.8569 19.3728 53.0294 19.6397 53.8289 19.6397C54.3085 19.6397 55.2146 19.6397 55.2146 18.8925C55.2146 17.1313 48.3394 17.9319 48.3394 12.7017C48.3394 9.44625 51.1108 7.68509 53.8822 7.68509C56.1206 7.68509 58.1459 8.48562 59.425 10.0333C59.6381 10.2468 59.5315 10.5136 59.425 10.6737L57.8261 12.8085C57.8261 12.8085 57.3997 12.9152 57.1332 12.8085C55.9074 12.1681 55.3212 11.8478 54.4684 11.8478C53.5624 11.8478 53.3492 12.3815 53.3492 12.6484C53.3492 14.623 60.2777 13.1821 60.2777 18.9992L60.2244 18.9459Z" fill="#11B04B"/>
<path d="M62.1964 2.77517C62.1964 1.28085 63.4222 0 64.9678 0C66.5134 0 67.7392 1.22748 67.7392 2.77517C67.7392 4.32286 66.5134 5.55034 64.9678 5.55034C63.4222 5.55034 62.1964 4.32286 62.1964 2.77517ZM62.836 8.05867H67.0996C67.3661 8.05867 67.5793 8.27214 67.5793 8.53899V23.1086C67.5793 23.3755 67.3661 23.5889 67.0996 23.5889H62.836C62.5695 23.5889 62.3563 23.3755 62.3563 23.1086V8.53899C62.3563 8.27214 62.5695 8.05867 62.836 8.05867Z" fill="#11B04B"/>
<path d="M114 14.4629V23.0552C114 23.3221 113.787 23.5356 113.52 23.5356H109.257C108.99 23.5356 108.777 23.3221 108.777 23.0552V15.5303C108.777 13.0753 107.391 12.5416 106.325 12.5416C104.407 12.5416 103.661 14.4629 103.661 15.21V23.0552C103.661 23.3221 103.447 23.5356 103.181 23.5356H98.9172C98.6507 23.5356 98.4376 23.3221 98.4376 23.0552V8.53896C98.4376 8.27212 98.6507 8.05865 98.9172 8.05865H103.074C103.341 8.05865 103.501 8.27212 103.554 8.53896L103.661 10.4602C104.62 8.85918 106.165 7.73843 108.351 7.73843C111.442 7.73843 114 10.3535 114 14.5163V14.4629Z" fill="#11B04B"/>
<path d="M8.78662 30.2664V32.8793C8.78662 32.8793 8.68011 33.1993 8.4671 33.1993H3.72765V35.8122H8.20084C8.20084 35.8122 8.52035 35.9188 8.52035 36.1321V38.7451C8.52035 38.7451 8.41385 39.065 8.20084 39.065H3.72765V44.8774C3.72765 44.8774 3.62115 45.1974 3.40814 45.1974H0.319511C0.319511 45.1974 0 45.0907 0 44.8774V30.2664C0 30.2664 0.106502 29.9464 0.319511 29.9464H8.4671C8.4671 29.9464 8.78662 30.0531 8.78662 30.2664Z" fill="#EF373E"/>
<path d="M23.2712 30.3197L18.798 38.2651V44.9841C18.798 44.9841 18.6915 45.304 18.4785 45.304H15.3899C15.3899 45.304 15.0704 45.1974 15.0704 44.9841V38.2118L10.5972 30.3197C10.5972 30.3197 10.5972 29.9464 10.8102 29.9464H14.0586C14.0586 29.9464 14.3781 29.9998 14.4313 30.1597L16.9342 34.7457L19.437 30.1597C19.437 30.1597 19.6501 29.9464 19.8098 29.9464H23.0582C23.0582 29.9464 23.431 30.0531 23.2712 30.3197Z" fill="#EF373E"/>
<path d="M34.5607 42.7444V44.9841C34.5607 44.9841 34.4542 45.304 34.2412 45.304H24.9753C24.9753 45.304 24.6558 45.1974 24.6558 44.9841V42.3711L26.6262 40.3981C29.6083 37.4119 31.0993 36.2921 31.0993 34.799C31.0993 33.7325 30.1408 33.0926 29.2355 33.0926C28.3302 33.0926 27.6912 33.4126 27.0522 33.9458C26.8924 34.1058 26.7327 34.1058 26.5729 33.9458L24.7623 32.1861C24.7623 32.1861 24.6026 31.8661 24.7623 31.7062C25.7741 30.533 27.2652 29.6798 29.342 29.6798C32.1111 29.6798 34.614 31.8128 34.614 34.5857C34.614 36.9853 32.5904 38.5851 29.768 41.5713L29.0758 42.3178H34.2945C34.2945 42.3178 34.614 42.4245 34.614 42.6378L34.5607 42.7444Z" fill="#EF373E"/>
<path d="M46.3295 40.0248C46.3295 43.4376 43.9864 45.5706 40.6848 45.5706C38.3949 45.5706 36.7441 44.2908 36.1051 43.1177C35.9985 42.9577 35.9986 42.8511 36.2116 42.7444L38.3416 41.2513C38.3416 41.2513 38.6612 41.1447 38.8209 41.2513C39.2469 41.8912 39.8327 42.2645 40.6315 42.2645C42.0161 42.2645 42.7616 41.1447 42.7616 40.0248C42.7616 39.0117 41.9628 37.8918 40.6315 37.8918C39.9392 37.8918 39.4067 38.2118 39.1404 38.4784C38.9807 38.6384 38.8742 38.6917 38.7144 38.6384L36.3713 37.9452C36.3713 37.9452 36.1051 37.7852 36.1583 37.5719L38.0754 30.2664C38.0754 30.2664 38.2351 29.9998 38.4482 29.9998H45.2112C45.2112 29.9998 45.5307 30.1064 45.5307 30.3197V32.5594C45.5307 32.5594 45.4242 32.8793 45.2112 32.8793H40.6315L40.099 34.959C40.099 34.959 40.4717 34.8523 41.2173 34.8523C44.2527 34.8523 46.3295 37.3053 46.3295 40.0782V40.0248Z" fill="#EF373E"/>
</svg>
