<svg width="41" height="27" viewBox="0 0 41 27" fill="none" xmlns="http://www.w3.org/2000/svg">
<path d="M40.2248 1.59583C38.4807 -1.52071 28.3328 1.16635 17.5585 7.6011C6.78223 14.033 -0.541365 21.774 1.20364 24.8915C2.70309 27.571 10.4085 25.9558 19.3875 21.3697C19.788 21.1419 19.76 20.6527 19.2372 20.8282C13.7025 22.9354 9.08742 23.0652 7.89141 20.8282C6.30513 17.861 11.3338 11.852 19.1233 7.40596C26.9128 2.9599 34.5146 1.76015 36.1009 4.72731C36.8272 6.08577 36.1634 8.08193 34.4847 10.2751C34.4782 10.2844 34.4735 10.2956 34.4623 10.3078C33.8414 11.1042 34.2933 11.3441 34.7377 10.9567C39.0335 7.0241 41.2714 3.47154 40.2239 1.59583H40.2248Z" fill="#EF373E"/>
<path d="M24.064 22.1142C23.1042 21.8471 22.3199 21.4858 21.7177 21.0283L22.8073 18.4879C23.4478 18.9089 24.1303 19.2282 24.8492 19.4523C25.57 19.6745 26.2935 19.7875 27.0209 19.7875C27.7482 19.7875 28.3261 19.6801 28.722 19.471C29.1141 19.26 29.312 18.964 29.312 18.584C29.312 18.2386 29.1347 17.9566 28.7771 17.7307C28.4195 17.5113 27.7454 17.29 26.7613 17.0752C25.5186 16.8194 24.5523 16.5038 23.8614 16.1294C23.1714 15.755 22.6896 15.3116 22.4105 14.8037C22.1341 14.292 21.995 13.6767 21.995 12.9513C21.995 12.1241 22.2228 11.3762 22.6812 10.7086C23.1369 10.0392 23.7755 9.51916 24.6018 9.14197C25.4262 8.76664 26.3664 8.58084 27.4279 8.58084C28.3775 8.58084 29.298 8.71715 30.1897 8.98978C31.0823 9.26334 31.7806 9.6228 32.2857 10.0682L31.2158 12.6086C30.6378 12.1876 30.0272 11.8682 29.3867 11.6423C28.7463 11.421 28.1067 11.309 27.4653 11.309C26.8239 11.309 26.3318 11.4341 25.95 11.6806C25.5672 11.9299 25.3795 12.265 25.3795 12.6843C25.3795 12.9139 25.4458 13.1035 25.5812 13.2575C25.7165 13.4088 25.9705 13.56 26.3365 13.7047C26.7081 13.8523 27.2617 14.0063 28.0012 14.1734C29.1953 14.4405 30.1355 14.7626 30.8199 15.1351C31.5015 15.5114 31.9851 15.952 32.2689 16.4544C32.5537 16.9576 32.6947 17.5579 32.6947 18.2572C32.6947 19.5812 32.1952 20.625 31.198 21.3785C30.2 22.1366 28.7957 22.5138 26.9844 22.5138C26.0004 22.5138 25.0238 22.3803 24.0658 22.1132L24.064 22.1142Z" fill="#2CB34A"/>
</svg>
