<svg width="118" height="25" viewBox="0 0 118 25" fill="none" xmlns="http://www.w3.org/2000/svg">
<path d="M40.858 1.25334C39.0442 -1.75561 28.4882 0.838456 17.2798 7.0519C6.07101 13.2629 -1.54738 20.7378 0.267259 23.7476C1.82654 26.3347 9.8428 24.7754 19.1826 20.3468C19.5989 20.127 19.5705 19.6542 19.0267 19.8242C13.2698 21.8588 8.46908 21.9845 7.22491 19.8242C5.57451 16.9591 10.8053 11.1564 18.9081 6.86376C27.0108 2.5703 34.9184 1.41231 36.5688 4.2775C37.324 5.58952 36.634 7.51649 34.8879 9.63405C34.8808 9.6435 34.8766 9.65377 34.8649 9.66568C34.2192 10.4347 34.6894 10.6663 35.1512 10.2925C39.6193 6.49529 41.9475 3.06488 40.858 1.25334Z" fill="#EF373E"/>
<path d="M24.0481 21.0663C23.0501 20.8088 22.2343 20.4592 21.6074 20.0176L22.7408 17.5648C23.407 17.9711 24.1167 18.28 24.8647 18.4961C25.6149 18.7109 26.3676 18.8198 27.1236 18.8198C27.8922 18.8198 28.4815 18.7162 28.8927 18.5141C29.301 18.3108 29.5062 18.0249 29.5062 17.6581C29.5062 17.3245 29.3215 17.0526 28.95 16.8345C28.578 16.6225 27.8772 16.4085 26.8532 16.2015C25.5606 15.9546 24.5555 15.6498 23.8366 15.2883C23.1191 14.9264 22.618 14.4988 22.3271 14.0079C22.0391 13.5137 21.8954 12.9202 21.8954 12.2194C21.8954 11.4208 22.1328 10.6983 22.6088 10.0541C23.0831 9.40758 23.7468 8.90561 24.6065 8.54125C25.4641 8.17853 26.4424 7.99902 27.5462 7.99902C28.5341 7.99902 29.4912 8.13047 30.4194 8.39419C31.3476 8.65832 32.0744 9.00543 32.5993 9.43552L31.486 11.8887C30.8846 11.4824 30.2497 11.1735 29.5836 10.9554C28.917 10.7418 28.2516 10.6338 27.5846 10.6338C26.9318 10.6338 26.4056 10.7545 26.0082 10.9924C25.6103 11.2327 25.4143 11.5568 25.4143 11.9614C25.4143 12.1828 25.4837 12.366 25.6245 12.5147C25.7654 12.661 26.0295 12.8072 26.4102 12.9464C26.7972 13.0886 27.3731 13.2381 28.1417 13.3991C29.3842 13.6571 30.3622 13.9676 31.0739 14.3279C31.7827 14.6914 32.2863 15.117 32.5809 15.6013C32.8768 16.0868 33.0239 16.6669 33.0239 17.3426C33.0239 18.6209 32.504 19.6286 31.4672 20.3565C30.429 21.0885 28.9684 21.4529 27.0844 21.4529C26.0609 21.4529 25.0449 21.3239 24.0481 21.0663Z" fill="#2CB34A"/>
<path d="M45.1324 11.9247V21.288H41.7104V20.0162C41.432 20.459 41.0208 20.8074 40.4817 21.0571C39.9438 21.3094 39.3516 21.4375 38.7142 21.4375C37.8796 21.4375 37.1378 21.2399 36.4829 20.8464C35.8322 20.4525 35.3211 19.8914 34.9546 19.1602C34.5918 18.4306 34.4062 17.5836 34.4062 16.6261C34.4062 15.655 34.5935 14.7956 34.9671 14.0447C35.3374 13.2947 35.8481 12.7105 36.5017 12.2932C37.1562 11.8766 37.893 11.668 38.7142 11.668C39.3516 11.668 39.9413 11.7978 40.4716 12.0631C41.0049 12.3273 41.4161 12.6805 41.7104 13.1217V11.9247H45.1324ZM41.2118 18.3407C41.5453 17.9328 41.7104 17.3511 41.7104 16.5891C41.7104 15.8144 41.5453 15.2208 41.2118 14.81C40.8791 14.3988 40.4048 14.1902 39.7887 14.1902C39.1869 14.1902 38.7142 14.4038 38.3674 14.8273C38.0205 15.2516 37.8483 15.8501 37.8483 16.6261C37.8483 17.3725 38.0125 17.9488 38.3477 18.3493C38.6821 18.7477 39.1618 18.947 39.7887 18.947C40.4048 18.947 40.8791 18.7445 41.2118 18.3407Z" fill="#2CB34A"/>
<path d="M47.4082 11.9248V11.6681C47.4082 10.4008 47.7534 9.4121 48.4363 8.69981C49.123 7.98711 50.1197 7.62891 51.4253 7.62891C52.1701 7.62891 52.7736 7.71681 53.2329 7.88811V10.4505C52.8609 10.3639 52.5525 10.3212 52.3117 10.3212C51.9013 10.3212 51.5607 10.4341 51.2907 10.6625C51.0233 10.8901 50.8887 11.2355 50.8887 11.7026V11.9248H52.7894V14.3768H50.8887V21.2881H47.4082V14.3768C47.4082 14.3768 47.4592 11.9248 47.4082 11.9248Z" fill="#2CB34A"/>
<path d="M64.5721 11.9247V21.288H61.1505V20.0162C60.8688 20.459 60.4593 20.8074 59.9193 21.0571C59.3831 21.3094 58.793 21.4375 58.1519 21.4375C57.3198 21.4375 56.578 21.2399 55.9235 20.8464C55.2707 20.4525 54.7625 19.8914 54.3943 19.1602C54.0295 18.4306 53.8477 17.5836 53.8477 16.6261C53.8477 15.655 54.034 14.7956 54.4039 14.0447C54.7759 13.2947 55.2895 12.7105 55.9423 12.2932C56.5976 11.8766 57.3323 11.668 58.1519 11.668C58.793 11.668 59.3798 11.7978 59.9101 12.0631C60.4417 12.3273 60.8563 12.6805 61.1505 13.1217V11.9247H64.5721ZM60.6494 18.3407C60.9846 17.9328 61.1505 17.3511 61.1505 16.5891C61.1505 15.8144 60.9846 15.2208 60.6494 14.81C60.3176 14.3988 59.8449 14.1902 59.228 14.1902C58.6271 14.1902 58.1519 14.4038 57.8067 14.8273C57.4615 15.2516 57.2885 15.8501 57.2885 16.6261C57.2885 17.3725 57.4544 17.9488 57.7887 18.3493C58.1205 18.7477 58.6012 18.947 59.228 18.947C59.8449 18.947 60.3176 18.7445 60.6494 18.3407Z" fill="#2CB34A"/>
<path d="M73.8823 11.9056V14.9487C73.3335 14.7014 72.8048 14.5782 72.2941 14.5782C70.8397 14.5782 70.1113 15.249 70.1113 16.5889V21.2878H66.6459V14.6143C66.6459 13.6091 66.5944 12.7104 66.4941 11.9245H69.7481L69.9596 13.4912C70.1878 12.9141 70.5581 12.4709 71.0696 12.1624C71.5803 11.8576 72.152 11.7031 72.7898 11.7031C73.2633 11.7031 73.6265 11.7713 73.8823 11.9056Z" fill="#2CB34A"/>
<path d="M78.3886 11.9238H74.9102V21.2871H78.3886V11.9238Z" fill="#2CB34A"/>
<path d="M81.4263 20.1452C80.4926 19.2859 80.0254 18.1123 80.0254 16.6257C80.0254 15.6423 80.2502 14.7751 80.7041 14.0275C81.1605 13.2774 81.7982 12.697 82.6186 12.2854C83.4369 11.8734 84.3869 11.668 85.463 11.668C86.1781 11.668 86.8844 11.7682 87.5782 11.9699C88.2673 12.1732 88.8177 12.4472 89.2286 12.7927L88.3442 15.0922C87.9999 14.8248 87.5941 14.61 87.136 14.451C86.6721 14.29 86.2316 14.2099 85.807 14.2099C85.0894 14.2099 84.539 14.4083 84.1558 14.7997C83.7704 15.1925 83.5778 15.7774 83.5778 16.5513C83.5778 17.3375 83.7704 17.9311 84.1558 18.332C84.539 18.7297 85.0974 18.9289 85.8287 18.9289C86.2504 18.9289 86.6892 18.8496 87.1448 18.6886C87.5986 18.5304 87.9999 18.314 88.3442 18.0449L89.2286 20.3103C88.8069 20.6685 88.2443 20.9442 87.5485 21.1405C86.8489 21.3373 86.1016 21.4351 85.3088 21.4351C83.6547 21.4351 82.3624 21.0054 81.4263 20.1452Z" fill="#2CB34A"/>
<path d="M92.4407 20.8458C91.6329 20.454 91.0106 19.8879 90.5755 19.1497C90.1384 18.4116 89.9219 17.5461 89.9219 16.5516C89.9219 15.5542 90.1384 14.6903 90.5755 13.9509C91.0106 13.2152 91.6329 12.6508 92.4407 12.2573C93.2469 11.8629 94.1948 11.667 95.2855 11.667C96.3609 11.667 97.2987 11.8666 98.0986 12.2667C98.901 12.6652 99.5183 13.2304 99.9525 13.9628C100.389 14.6916 100.606 15.5542 100.606 16.5516C100.606 17.5461 100.389 18.4107 99.9525 19.1411C99.5183 19.8723 98.901 20.4379 98.0986 20.8356C97.2987 21.2365 96.3609 21.437 95.2855 21.437C94.1948 21.437 93.2469 21.2402 92.4407 20.8458ZM97.1704 16.5516C97.1704 15.7399 97.0099 15.143 96.6952 14.7548C96.3839 14.3683 95.9112 14.1756 95.2855 14.1756C94.6424 14.1756 94.1634 14.3683 93.8424 14.7548C93.5223 15.143 93.3602 15.7399 93.3602 16.5516C93.3602 17.3744 93.5223 17.9807 93.8424 18.368C94.1634 18.7546 94.6424 18.9489 95.2855 18.9489C96.541 18.9489 97.1704 18.1491 97.1704 16.5516Z" fill="#2CB34A"/>
<path d="M117.183 12.6616C117.729 13.3255 118 14.3397 118 15.7022V21.2876H114.523V15.7955C114.523 15.2409 114.438 14.8425 114.263 14.5981C114.088 14.3508 113.796 14.2292 113.388 14.2292C112.9 14.2292 112.523 14.4021 112.253 14.7451C111.984 15.0898 111.85 15.5712 111.85 16.2013V21.2876H108.372V15.7955C108.372 15.2409 108.28 14.8425 108.103 14.5981C107.921 14.3508 107.635 14.2292 107.238 14.2292C106.752 14.2292 106.375 14.4021 106.114 14.7451C105.851 15.0898 105.72 15.5712 105.72 16.2013V21.2876H102.237V14.6149C102.237 13.6093 102.191 12.7105 102.086 11.9243H105.354L105.527 13.2347C105.822 12.729 106.236 12.3408 106.766 12.0714C107.299 11.8031 107.911 11.668 108.601 11.668C109.999 11.668 110.948 12.234 111.446 13.362C111.793 12.8457 112.253 12.4341 112.82 12.1272C113.39 11.8208 114.009 11.668 114.675 11.668C115.801 11.668 116.638 11.9986 117.183 12.6616Z" fill="#2CB34A"/>
<path d="M78.3886 7.33398H74.9102V10.3376H78.3886V7.33398Z" fill="#2CB34A"/>
</svg>
