<svg width="42" height="42" viewBox="0 0 42 42" fill="none" xmlns="http://www.w3.org/2000/svg">
<circle cx="21" cy="21" r="21" fill="#2CB34A"/>
<path d="M23.0435 13.7736C24.3353 12.4818 24.3353 10.3875 23.0435 9.09577C21.7518 7.80403 19.6575 7.80404 18.3657 9.09577C17.074 10.3875 17.074 12.4818 18.3657 13.7736C19.6575 15.0653 21.7518 15.0653 23.0435 13.7736Z" fill="white"/>
<path d="M30.4009 15.1613C23.9901 16.3461 17.4165 16.3461 11.0058 15.1613C10.8777 15.1361 10.7459 15.1368 10.6181 15.1633C10.4903 15.1897 10.369 15.2415 10.2615 15.3154C10.1539 15.3893 10.0622 15.484 9.99175 15.5939C9.92127 15.7037 9.87344 15.8266 9.85107 15.9551C9.82675 16.0831 9.82804 16.2147 9.85485 16.3422C9.88167 16.4697 9.93348 16.5906 10.0073 16.698C10.0811 16.8053 10.1754 16.897 10.2849 16.9677C10.3943 17.0384 10.5167 17.0867 10.6449 17.1098C12.816 17.5092 15.009 17.7783 17.2122 17.9157C17.4255 17.9305 17.6335 17.9885 17.8237 18.0862C18.0139 18.1839 18.1821 18.3194 18.3183 18.4842C18.4544 18.6491 18.5556 18.8399 18.6157 19.0451C18.6757 19.2503 18.6934 19.4656 18.6676 19.6778L18.4751 21.3316C18.1824 23.9349 17.5767 26.4933 16.6709 28.9514L15.4681 32.1689C15.3756 32.4153 15.3848 32.6884 15.4936 32.928C15.6025 33.1677 15.8021 33.3543 16.0485 33.4468C16.2949 33.5393 16.568 33.5302 16.8077 33.4213C17.0473 33.3125 17.2339 33.1129 17.3265 32.8665L17.6211 32.2651C18.5834 30.2143 19.4795 28.1154 20.2974 25.9925C20.3298 25.9088 20.3868 25.8369 20.4608 25.7861C20.5349 25.7354 20.6226 25.7083 20.7123 25.7083C20.8021 25.7083 20.8898 25.7354 20.9638 25.7861C21.0379 25.8369 21.0949 25.9088 21.1273 25.9925C21.9452 28.1154 22.8413 30.2023 23.8035 32.2711L24.1102 32.9266C24.1846 33.1022 24.3082 33.2524 24.4662 33.3591C24.6242 33.4658 24.8097 33.5245 25.0003 33.528C25.1176 33.527 25.2338 33.5046 25.3431 33.4619C25.4671 33.4188 25.5813 33.3515 25.679 33.2637C25.7767 33.1759 25.8558 33.0696 25.9119 32.9508C25.9679 32.8321 25.9996 32.7033 26.0052 32.5721C26.0108 32.441 25.9902 32.31 25.9445 32.1869L24.7417 28.9694C23.8389 26.5104 23.2332 23.9524 22.9375 21.3497L22.7511 19.6838C22.7261 19.4724 22.7445 19.258 22.805 19.0539C22.8655 18.8497 22.9669 18.66 23.1031 18.4963C23.2392 18.3326 23.4072 18.1983 23.5969 18.1016C23.7866 18.0049 23.994 17.9478 24.2065 17.9337C26.3912 17.7975 28.5661 17.5324 30.7196 17.1399C30.9582 17.0994 31.1753 16.9769 31.3334 16.7936C31.4914 16.6103 31.5806 16.3776 31.5856 16.1356C31.5857 15.9889 31.5533 15.844 31.4907 15.7113C31.4281 15.5786 31.3369 15.4615 31.2236 15.3683C31.1103 15.2751 30.9777 15.2083 30.8355 15.1725C30.6932 15.1367 30.5448 15.1328 30.4009 15.1613Z" fill="white"/>
<path d="M21.1468 1.76231C17.3129 1.76231 13.5651 2.8992 10.3773 5.02921C7.18953 7.15922 4.70496 10.1867 3.23778 13.7288C1.77061 17.2708 1.38673 21.1684 2.13469 24.9287C2.88265 28.6889 4.72885 32.1429 7.43984 34.8539C10.1508 37.5649 13.6048 39.4111 17.3651 40.1591C21.1253 40.907 25.0229 40.5231 28.565 39.056C32.1071 37.5888 35.1345 35.1042 37.2645 31.9164C39.3946 28.7287 40.5314 24.9808 40.5314 21.1469C40.5266 16.0073 38.4827 11.0796 34.8484 7.44533C31.2142 3.81107 26.2864 1.7672 21.1468 1.76231ZM21.1468 38.6854C17.678 38.6854 14.2872 37.6568 11.403 35.7296C8.5188 33.8025 6.27085 31.0633 4.9434 27.8586C3.61596 24.6539 3.26864 21.1275 3.94537 17.7253C4.62209 14.3232 6.29247 11.1982 8.74526 8.74536C11.1981 6.29257 14.3231 4.62219 17.7252 3.94546C21.1274 3.26874 24.6538 3.61606 27.8585 4.9435C31.0632 6.27095 33.8024 8.5189 35.7295 11.4031C37.6567 14.2873 38.6853 17.6781 38.6853 21.1469C38.6788 25.7964 36.8289 30.2536 33.5412 33.5413C30.2535 36.829 25.7963 38.6789 21.1468 38.6854Z" fill="white"/>
</svg>
